<mxfile host="65bd71144e" pages="2">
    <diagram name="StudyActivity-Architecture" id="_k-J8Ypn1gQTwZJBq9X9">
        <mxGraphModel dx="1626" dy="1139" grid="1" gridSize="10" guides="1" tooltips="1" connect="1" arrows="1" fold="1" page="1" pageScale="1" pageWidth="850" pageHeight="1100" math="0" shadow="0">
            <root>
                <mxCell id="0"/>
                <mxCell id="1" parent="0"/>
                <mxCell id="AycQaTVY-WSe7uSmyWIq-21" value="" style="rounded=1;whiteSpace=wrap;html=1;fillColor=#ffe6cc;strokeColor=#d79b00;" parent="1" vertex="1">
                    <mxGeometry x="70" y="30" width="710" height="490" as="geometry"/>
                </mxCell>
                <mxCell id="AycQaTVY-WSe7uSmyWIq-2" value="" style="rounded=1;whiteSpace=wrap;html=1;fillColor=#e1d5e7;strokeColor=#9673a6;" parent="1" vertex="1">
                    <mxGeometry x="640" y="270" width="120" height="140" as="geometry"/>
                </mxCell>
                <mxCell id="AycQaTVY-WSe7uSmyWIq-3" value="Generation" style="ellipse;whiteSpace=wrap;html=1;fillColor=#dae8fc;strokeColor=#6c8ebf;" parent="1" vertex="1">
                    <mxGeometry x="670" y="350" width="60" height="50" as="geometry"/>
                </mxCell>
                <mxCell id="AycQaTVY-WSe7uSmyWIq-4" value="&lt;div&gt;&lt;br&gt;&lt;/div&gt;&lt;div&gt;&lt;br&gt;&lt;/div&gt;User" style="shape=actor;whiteSpace=wrap;html=1;fillColor=#e1d5e7;strokeColor=#9673a6;" parent="1" vertex="1">
                    <mxGeometry x="80" y="220" width="50" height="60" as="geometry"/>
                </mxCell>
                <mxCell id="AycQaTVY-WSe7uSmyWIq-9" value="Model API" style="text;strokeColor=none;align=center;fillColor=none;html=1;verticalAlign=middle;whiteSpace=wrap;rounded=0;" parent="1" vertex="1">
                    <mxGeometry x="670" y="270" width="60" height="30" as="geometry"/>
                </mxCell>
                <mxCell id="AycQaTVY-WSe7uSmyWIq-11" value="DB" style="shape=cylinder3;whiteSpace=wrap;html=1;boundedLbl=1;backgroundOutline=1;size=15;fillColor=#f8cecc;strokeColor=#b85450;" parent="1" vertex="1">
                    <mxGeometry x="200" y="90" width="60" height="80" as="geometry"/>
                </mxCell>
                <mxCell id="AycQaTVY-WSe7uSmyWIq-24" value="" style="edgeStyle=orthogonalEdgeStyle;rounded=0;orthogonalLoop=1;jettySize=auto;html=1;" parent="1" edge="1">
                    <mxGeometry relative="1" as="geometry">
                        <mxPoint x="360" y="239.76" as="sourcePoint"/>
                        <mxPoint x="440" y="239.76" as="targetPoint"/>
                    </mxGeometry>
                </mxCell>
                <mxCell id="AycQaTVY-WSe7uSmyWIq-28" style="edgeStyle=orthogonalEdgeStyle;rounded=0;orthogonalLoop=1;jettySize=auto;html=1;exitX=0.5;exitY=0;exitDx=0;exitDy=0;entryX=0.083;entryY=0.5;entryDx=0;entryDy=0;entryPerimeter=0;" parent="1" source="AycQaTVY-WSe7uSmyWIq-13" target="AycQaTVY-WSe7uSmyWIq-15" edge="1">
                    <mxGeometry relative="1" as="geometry">
                        <mxPoint x="350" y="160" as="targetPoint"/>
                        <Array as="points">
                            <mxPoint x="330" y="220"/>
                            <mxPoint x="330" y="130"/>
                        </Array>
                    </mxGeometry>
                </mxCell>
                <mxCell id="AycQaTVY-WSe7uSmyWIq-15" value="Internet" style="ellipse;shape=cloud;whiteSpace=wrap;html=1;fillColor=#f8cecc;strokeColor=#b85450;" parent="1" vertex="1">
                    <mxGeometry x="360" y="90" width="120" height="80" as="geometry"/>
                </mxCell>
                <mxCell id="AycQaTVY-WSe7uSmyWIq-19" value="Input GuardRail" style="rounded=1;whiteSpace=wrap;html=1;fillColor=#f8cecc;strokeColor=#b85450;" parent="1" vertex="1">
                    <mxGeometry x="640" y="220" width="120" height="40" as="geometry"/>
                </mxCell>
                <mxCell id="AycQaTVY-WSe7uSmyWIq-20" value="Output GuardRail" style="rounded=1;whiteSpace=wrap;html=1;fillColor=#f8cecc;strokeColor=#b85450;" parent="1" vertex="1">
                    <mxGeometry x="640" y="420" width="120" height="40" as="geometry"/>
                </mxCell>
                <mxCell id="AycQaTVY-WSe7uSmyWIq-23" value="" style="edgeStyle=orthogonalEdgeStyle;rounded=0;orthogonalLoop=1;jettySize=auto;html=1;" parent="1" source="AycQaTVY-WSe7uSmyWIq-22" target="AycQaTVY-WSe7uSmyWIq-19" edge="1">
                    <mxGeometry relative="1" as="geometry">
                        <Array as="points">
                            <mxPoint x="580" y="240"/>
                            <mxPoint x="580" y="240"/>
                        </Array>
                    </mxGeometry>
                </mxCell>
                <mxCell id="AycQaTVY-WSe7uSmyWIq-22" value="Prompt Cache" style="rounded=1;whiteSpace=wrap;html=1;fillColor=#d5e8d4;strokeColor=#82b366;" parent="1" vertex="1">
                    <mxGeometry x="440" y="220" width="120" height="60" as="geometry"/>
                </mxCell>
                <mxCell id="AycQaTVY-WSe7uSmyWIq-25" style="edgeStyle=orthogonalEdgeStyle;rounded=0;orthogonalLoop=1;jettySize=auto;html=1;entryX=1;entryY=0.5;entryDx=0;entryDy=0;entryPerimeter=0;" parent="1" target="AycQaTVY-WSe7uSmyWIq-11" edge="1">
                    <mxGeometry relative="1" as="geometry">
                        <mxPoint x="310" y="220" as="sourcePoint"/>
                        <Array as="points">
                            <mxPoint x="310" y="220"/>
                            <mxPoint x="310" y="130"/>
                        </Array>
                    </mxGeometry>
                </mxCell>
                <mxCell id="AycQaTVY-WSe7uSmyWIq-30" style="edgeStyle=orthogonalEdgeStyle;rounded=0;orthogonalLoop=1;jettySize=auto;html=1;" parent="1" edge="1">
                    <mxGeometry relative="1" as="geometry">
                        <mxPoint x="120" y="239.76" as="sourcePoint"/>
                        <mxPoint x="270" y="239.76" as="targetPoint"/>
                        <Array as="points">
                            <mxPoint x="120" y="239.76"/>
                            <mxPoint x="267" y="239.76"/>
                        </Array>
                    </mxGeometry>
                </mxCell>
                <mxCell id="AycQaTVY-WSe7uSmyWIq-31" value="&lt;b&gt;QUERY&lt;/b&gt;" style="edgeLabel;html=1;align=center;verticalAlign=middle;resizable=0;points=[];" parent="AycQaTVY-WSe7uSmyWIq-30" vertex="1" connectable="0">
                    <mxGeometry x="0.2432" y="-2" relative="1" as="geometry">
                        <mxPoint x="-21" y="-17" as="offset"/>
                    </mxGeometry>
                </mxCell>
                <mxCell id="AycQaTVY-WSe7uSmyWIq-32" style="edgeStyle=orthogonalEdgeStyle;rounded=0;orthogonalLoop=1;jettySize=auto;html=1;exitX=0;exitY=0.5;exitDx=0;exitDy=0;entryX=0.53;entryY=1.054;entryDx=0;entryDy=0;entryPerimeter=0;" parent="1" source="AycQaTVY-WSe7uSmyWIq-20" target="AycQaTVY-WSe7uSmyWIq-4" edge="1">
                    <mxGeometry relative="1" as="geometry"/>
                </mxCell>
                <mxCell id="AycQaTVY-WSe7uSmyWIq-33" value="&lt;b&gt;RESPONSE&lt;/b&gt;" style="edgeLabel;html=1;align=center;verticalAlign=middle;resizable=0;points=[];" parent="AycQaTVY-WSe7uSmyWIq-32" vertex="1" connectable="0">
                    <mxGeometry x="-0.2507" y="-3" relative="1" as="geometry">
                        <mxPoint y="-7" as="offset"/>
                    </mxGeometry>
                </mxCell>
                <mxCell id="AycQaTVY-WSe7uSmyWIq-34" value="" style="endArrow=none;html=1;rounded=0;entryX=0.5;entryY=1;entryDx=0;entryDy=0;exitX=0.5;exitY=0;exitDx=0;exitDy=0;" parent="1" source="AycQaTVY-WSe7uSmyWIq-2" target="AycQaTVY-WSe7uSmyWIq-19" edge="1">
                    <mxGeometry width="50" height="50" relative="1" as="geometry">
                        <mxPoint x="290" y="270" as="sourcePoint"/>
                        <mxPoint x="340" y="220" as="targetPoint"/>
                    </mxGeometry>
                </mxCell>
                <mxCell id="AycQaTVY-WSe7uSmyWIq-35" value="" style="endArrow=none;html=1;rounded=0;entryX=0.5;entryY=1;entryDx=0;entryDy=0;exitX=0.5;exitY=0;exitDx=0;exitDy=0;" parent="1" source="AycQaTVY-WSe7uSmyWIq-20" target="AycQaTVY-WSe7uSmyWIq-2" edge="1">
                    <mxGeometry width="50" height="50" relative="1" as="geometry">
                        <mxPoint x="570" y="370" as="sourcePoint"/>
                        <mxPoint x="570" y="360" as="targetPoint"/>
                    </mxGeometry>
                </mxCell>
                <mxCell id="AycQaTVY-WSe7uSmyWIq-36" value="Study Activity (Sentence Constructor)" style="rounded=0;whiteSpace=wrap;html=1;fillColor=#fff2cc;strokeColor=#d6b656;" parent="1" vertex="1">
                    <mxGeometry x="125" y="40" width="600" height="20" as="geometry"/>
                </mxCell>
                <mxCell id="AycQaTVY-WSe7uSmyWIq-39" style="edgeStyle=orthogonalEdgeStyle;rounded=0;orthogonalLoop=1;jettySize=auto;html=1;exitX=0.5;exitY=0;exitDx=0;exitDy=0;entryX=0.5;entryY=0;entryDx=0;entryDy=0;entryPerimeter=0;" parent="1" source="AycQaTVY-WSe7uSmyWIq-13" target="AycQaTVY-WSe7uSmyWIq-38" edge="1">
                    <mxGeometry relative="1" as="geometry"/>
                </mxCell>
                <mxCell id="AycQaTVY-WSe7uSmyWIq-13" value="RAG" style="rounded=1;whiteSpace=wrap;html=1;fillColor=#d5e8d4;strokeColor=#82b366;" parent="1" vertex="1">
                    <mxGeometry x="280" y="220" width="80" height="60" as="geometry"/>
                </mxCell>
                <mxCell id="AycQaTVY-WSe7uSmyWIq-37" value="70B Params" style="rounded=1;whiteSpace=wrap;html=1;fillColor=#dae8fc;strokeColor=#6c8ebf;" parent="1" vertex="1">
                    <mxGeometry x="650" y="300" width="50" height="40" as="geometry"/>
                </mxCell>
                <mxCell id="AycQaTVY-WSe7uSmyWIq-38" value="Vector Database" style="shape=cylinder3;whiteSpace=wrap;html=1;boundedLbl=1;backgroundOutline=1;size=15;fillColor=#f8cecc;strokeColor=#b85450;" parent="1" vertex="1">
                    <mxGeometry x="110" y="90" width="60" height="80" as="geometry"/>
                </mxCell>
                <mxCell id="AycQaTVY-WSe7uSmyWIq-40" value="GPT-4o" style="rounded=1;whiteSpace=wrap;html=1;fillColor=#dae8fc;strokeColor=#6c8ebf;" parent="1" vertex="1">
                    <mxGeometry x="700" y="300" width="50" height="40" as="geometry"/>
                </mxCell>
            </root>
        </mxGraphModel>
    </diagram>
    <diagram id="NK-CRRTh5zZbQNMq0tdK" name="SentConst-States">
        <mxGraphModel dx="1181" dy="687" grid="1" gridSize="10" guides="1" tooltips="1" connect="1" arrows="1" fold="1" page="1" pageScale="1" pageWidth="850" pageHeight="1100" math="0" shadow="0">
            <root>
                <mxCell id="0"/>
                <mxCell id="1" parent="0"/>
                <mxCell id="7MvwMutLjz3MVesOyT9L-21" value="" style="rounded=1;whiteSpace=wrap;html=1;" parent="1" vertex="1">
                    <mxGeometry x="350" y="110" width="470" height="290" as="geometry"/>
                </mxCell>
                <mxCell id="D6FvOElpsq7PnRY2lZFm-9" value="" style="group" parent="1" vertex="1" connectable="0">
                    <mxGeometry x="125" y="230" width="190" height="285" as="geometry"/>
                </mxCell>
                <mxCell id="D6FvOElpsq7PnRY2lZFm-4" value="" style="rounded=1;whiteSpace=wrap;html=1;" parent="D6FvOElpsq7PnRY2lZFm-9" vertex="1">
                    <mxGeometry width="190" height="285" as="geometry"/>
                </mxCell>
                <mxCell id="D6FvOElpsq7PnRY2lZFm-1" value="Vocabulary Table" style="rounded=1;whiteSpace=wrap;html=1;" parent="D6FvOElpsq7PnRY2lZFm-9" vertex="1">
                    <mxGeometry x="15" y="50" width="160" height="60" as="geometry"/>
                </mxCell>
                <mxCell id="D6FvOElpsq7PnRY2lZFm-2" value="Sentence Structure" style="rounded=1;whiteSpace=wrap;html=1;" parent="D6FvOElpsq7PnRY2lZFm-9" vertex="1">
                    <mxGeometry x="15" y="130" width="160" height="60" as="geometry"/>
                </mxCell>
                <mxCell id="D6FvOElpsq7PnRY2lZFm-3" value="Clues, Considerations, Next Steps" style="rounded=1;whiteSpace=wrap;html=1;" parent="D6FvOElpsq7PnRY2lZFm-9" vertex="1">
                    <mxGeometry x="15" y="210" width="160" height="60" as="geometry"/>
                </mxCell>
                <mxCell id="D6FvOElpsq7PnRY2lZFm-8" value="Assistant Output" style="text;strokeColor=none;align=center;fillColor=none;html=1;verticalAlign=middle;whiteSpace=wrap;rounded=0;" parent="D6FvOElpsq7PnRY2lZFm-9" vertex="1">
                    <mxGeometry x="37.5" y="10" width="115" height="30" as="geometry"/>
                </mxCell>
                <mxCell id="D6FvOElpsq7PnRY2lZFm-10" value="" style="shape=curlyBracket;whiteSpace=wrap;html=1;rounded=1;labelPosition=left;verticalLabelPosition=middle;align=right;verticalAlign=middle;" parent="1" vertex="1">
                    <mxGeometry x="65" y="110" width="40" height="400" as="geometry"/>
                </mxCell>
                <mxCell id="D6FvOElpsq7PnRY2lZFm-11" value="Setup" style="text;strokeColor=none;align=center;fillColor=none;html=1;verticalAlign=middle;whiteSpace=wrap;rounded=0;" parent="1" vertex="1">
                    <mxGeometry x="10" y="295" width="55" height="30" as="geometry"/>
                </mxCell>
                <mxCell id="D6FvOElpsq7PnRY2lZFm-12" value="" style="group" parent="1" vertex="1" connectable="0">
                    <mxGeometry x="140" y="110" width="160" height="100" as="geometry"/>
                </mxCell>
                <mxCell id="D6FvOElpsq7PnRY2lZFm-5" value="" style="rounded=1;whiteSpace=wrap;html=1;" parent="D6FvOElpsq7PnRY2lZFm-12" vertex="1">
                    <mxGeometry width="160" height="100" as="geometry"/>
                </mxCell>
                <mxCell id="D6FvOElpsq7PnRY2lZFm-6" value="Target English Sentence" style="rounded=1;whiteSpace=wrap;html=1;" parent="D6FvOElpsq7PnRY2lZFm-12" vertex="1">
                    <mxGeometry x="20" y="30" width="120" height="60" as="geometry"/>
                </mxCell>
                <mxCell id="D6FvOElpsq7PnRY2lZFm-7" value="Student Input" style="text;strokeColor=none;align=center;fillColor=none;html=1;verticalAlign=middle;whiteSpace=wrap;rounded=0;" parent="D6FvOElpsq7PnRY2lZFm-12" vertex="1">
                    <mxGeometry x="22.5" width="115" height="30" as="geometry"/>
                </mxCell>
                <mxCell id="D6FvOElpsq7PnRY2lZFm-13" value="" style="shape=curlyBracket;whiteSpace=wrap;html=1;rounded=1;labelPosition=left;verticalLabelPosition=middle;align=right;verticalAlign=middle;" parent="1" vertex="1">
                    <mxGeometry x="65" y="560" width="40" height="340" as="geometry"/>
                </mxCell>
                <mxCell id="D6FvOElpsq7PnRY2lZFm-14" value="Attempt" style="text;strokeColor=none;align=center;fillColor=none;html=1;verticalAlign=middle;whiteSpace=wrap;rounded=0;" parent="1" vertex="1">
                    <mxGeometry x="10" y="715" width="55" height="30" as="geometry"/>
                </mxCell>
                <mxCell id="D6FvOElpsq7PnRY2lZFm-22" value="" style="group" parent="1" vertex="1" connectable="0">
                    <mxGeometry x="140" y="560" width="160" height="100" as="geometry"/>
                </mxCell>
                <mxCell id="D6FvOElpsq7PnRY2lZFm-23" value="" style="rounded=1;whiteSpace=wrap;html=1;" parent="D6FvOElpsq7PnRY2lZFm-22" vertex="1">
                    <mxGeometry width="160" height="100" as="geometry"/>
                </mxCell>
                <mxCell id="D6FvOElpsq7PnRY2lZFm-24" value="Target English Sentence" style="rounded=1;whiteSpace=wrap;html=1;" parent="D6FvOElpsq7PnRY2lZFm-22" vertex="1">
                    <mxGeometry x="20" y="30" width="120" height="60" as="geometry"/>
                </mxCell>
                <mxCell id="D6FvOElpsq7PnRY2lZFm-25" value="&lt;u&gt;Student Input&lt;/u&gt;" style="text;strokeColor=none;align=center;fillColor=none;html=1;verticalAlign=middle;whiteSpace=wrap;rounded=0;" parent="D6FvOElpsq7PnRY2lZFm-22" vertex="1">
                    <mxGeometry x="22.5" width="115" height="30" as="geometry"/>
                </mxCell>
                <mxCell id="D6FvOElpsq7PnRY2lZFm-26" value="" style="group" parent="1" vertex="1" connectable="0">
                    <mxGeometry x="125" y="680" width="190" height="210" as="geometry"/>
                </mxCell>
                <mxCell id="D6FvOElpsq7PnRY2lZFm-27" value="" style="rounded=1;whiteSpace=wrap;html=1;" parent="D6FvOElpsq7PnRY2lZFm-26" vertex="1">
                    <mxGeometry width="190" height="210" as="geometry"/>
                </mxCell>
                <mxCell id="D6FvOElpsq7PnRY2lZFm-28" value="Instructor Interpretation" style="rounded=1;whiteSpace=wrap;html=1;" parent="D6FvOElpsq7PnRY2lZFm-26" vertex="1">
                    <mxGeometry x="15" y="90.00210526315789" width="160" height="44.21052631578947" as="geometry"/>
                </mxCell>
                <mxCell id="D6FvOElpsq7PnRY2lZFm-29" value="Clues, Considerations, Next Steps" style="rounded=1;whiteSpace=wrap;html=1;" parent="D6FvOElpsq7PnRY2lZFm-26" vertex="1">
                    <mxGeometry x="15" y="148.94947368421052" width="160" height="44.21052631578947" as="geometry"/>
                </mxCell>
                <mxCell id="D6FvOElpsq7PnRY2lZFm-31" value="Assistant Output" style="text;strokeColor=none;align=center;fillColor=none;html=1;verticalAlign=middle;whiteSpace=wrap;rounded=0;fontStyle=4" parent="D6FvOElpsq7PnRY2lZFm-26" vertex="1">
                    <mxGeometry x="38" y="19.998421052631578" width="115" height="22.105263157894736" as="geometry"/>
                </mxCell>
                <mxCell id="7MvwMutLjz3MVesOyT9L-4" style="edgeStyle=orthogonalEdgeStyle;rounded=0;orthogonalLoop=1;jettySize=auto;html=1;exitX=0.5;exitY=1;exitDx=0;exitDy=0;entryX=0.5;entryY=0;entryDx=0;entryDy=0;" parent="1" source="7MvwMutLjz3MVesOyT9L-1" target="7MvwMutLjz3MVesOyT9L-2" edge="1">
                    <mxGeometry relative="1" as="geometry"/>
                </mxCell>
                <mxCell id="7MvwMutLjz3MVesOyT9L-5" style="edgeStyle=orthogonalEdgeStyle;rounded=0;orthogonalLoop=1;jettySize=auto;html=1;exitX=0.5;exitY=1;exitDx=0;exitDy=0;entryX=0.5;entryY=0;entryDx=0;entryDy=0;" parent="1" source="7MvwMutLjz3MVesOyT9L-1" target="7MvwMutLjz3MVesOyT9L-3" edge="1">
                    <mxGeometry relative="1" as="geometry"/>
                </mxCell>
                <mxCell id="7MvwMutLjz3MVesOyT9L-1" value="Setup" style="rounded=0;whiteSpace=wrap;html=1;" parent="1" vertex="1">
                    <mxGeometry x="549.94" y="170" width="120" height="60" as="geometry"/>
                </mxCell>
                <mxCell id="7MvwMutLjz3MVesOyT9L-6" style="edgeStyle=orthogonalEdgeStyle;rounded=0;orthogonalLoop=1;jettySize=auto;html=1;exitX=0.5;exitY=1;exitDx=0;exitDy=0;entryX=-0.02;entryY=0.523;entryDx=0;entryDy=0;entryPerimeter=0;" parent="1" source="7MvwMutLjz3MVesOyT9L-2" target="7MvwMutLjz3MVesOyT9L-2" edge="1">
                    <mxGeometry relative="1" as="geometry">
                        <mxPoint x="419.94" y="300" as="targetPoint"/>
                        <Array as="points">
                            <mxPoint x="489.94" y="350"/>
                            <mxPoint x="399.94" y="350"/>
                            <mxPoint x="399.94" y="301"/>
                            <mxPoint x="419.94" y="301"/>
                        </Array>
                    </mxGeometry>
                </mxCell>
                <mxCell id="7MvwMutLjz3MVesOyT9L-20" style="edgeStyle=orthogonalEdgeStyle;rounded=0;orthogonalLoop=1;jettySize=auto;html=1;exitX=0.581;exitY=1.007;exitDx=0;exitDy=0;entryX=0;entryY=0.25;entryDx=0;entryDy=0;exitPerimeter=0;" parent="1" source="7MvwMutLjz3MVesOyT9L-2" target="7MvwMutLjz3MVesOyT9L-1" edge="1">
                    <mxGeometry relative="1" as="geometry">
                        <Array as="points">
                            <mxPoint x="500" y="370"/>
                            <mxPoint x="370" y="370"/>
                            <mxPoint x="370" y="185"/>
                        </Array>
                    </mxGeometry>
                </mxCell>
                <mxCell id="t-cXYf8j2GPcp24TWU9U-1" style="edgeStyle=orthogonalEdgeStyle;rounded=0;orthogonalLoop=1;jettySize=auto;html=1;exitX=0.75;exitY=1;exitDx=0;exitDy=0;entryX=0.5;entryY=1;entryDx=0;entryDy=0;" edge="1" parent="1" source="7MvwMutLjz3MVesOyT9L-2" target="7MvwMutLjz3MVesOyT9L-3">
                    <mxGeometry relative="1" as="geometry"/>
                </mxCell>
                <mxCell id="7MvwMutLjz3MVesOyT9L-2" value="Attempt" style="rounded=1;whiteSpace=wrap;html=1;" parent="1" vertex="1">
                    <mxGeometry x="429.94" y="270" width="120" height="60" as="geometry"/>
                </mxCell>
                <mxCell id="7MvwMutLjz3MVesOyT9L-7" style="edgeStyle=orthogonalEdgeStyle;rounded=0;orthogonalLoop=1;jettySize=auto;html=1;exitX=0;exitY=0.5;exitDx=0;exitDy=0;" parent="1" source="7MvwMutLjz3MVesOyT9L-3" target="7MvwMutLjz3MVesOyT9L-2" edge="1">
                    <mxGeometry relative="1" as="geometry"/>
                </mxCell>
                <mxCell id="7MvwMutLjz3MVesOyT9L-3" value="Clues" style="rounded=1;whiteSpace=wrap;html=1;" parent="1" vertex="1">
                    <mxGeometry x="669.94" y="270" width="120" height="60" as="geometry"/>
                </mxCell>
                <mxCell id="7MvwMutLjz3MVesOyT9L-8" value="" style="shape=curlyBracket;whiteSpace=wrap;html=1;rounded=1;labelPosition=left;verticalLabelPosition=middle;align=right;verticalAlign=middle;" parent="1" vertex="1">
                    <mxGeometry x="65" y="950" width="40" height="340" as="geometry"/>
                </mxCell>
                <mxCell id="7MvwMutLjz3MVesOyT9L-9" value="Clues" style="text;strokeColor=none;align=center;fillColor=none;html=1;verticalAlign=middle;whiteSpace=wrap;rounded=0;" parent="1" vertex="1">
                    <mxGeometry x="10" y="1105" width="55" height="30" as="geometry"/>
                </mxCell>
                <mxCell id="7MvwMutLjz3MVesOyT9L-10" value="" style="group" parent="1" vertex="1" connectable="0">
                    <mxGeometry x="140" y="950" width="160" height="100" as="geometry"/>
                </mxCell>
                <mxCell id="7MvwMutLjz3MVesOyT9L-11" value="" style="rounded=1;whiteSpace=wrap;html=1;" parent="7MvwMutLjz3MVesOyT9L-10" vertex="1">
                    <mxGeometry width="160" height="100" as="geometry"/>
                </mxCell>
                <mxCell id="7MvwMutLjz3MVesOyT9L-12" value="Student Question" style="rounded=1;whiteSpace=wrap;html=1;" parent="7MvwMutLjz3MVesOyT9L-10" vertex="1">
                    <mxGeometry x="20" y="30" width="120" height="60" as="geometry"/>
                </mxCell>
                <mxCell id="7MvwMutLjz3MVesOyT9L-13" value="&lt;u&gt;Student Input&lt;/u&gt;" style="text;strokeColor=none;align=center;fillColor=none;html=1;verticalAlign=middle;whiteSpace=wrap;rounded=0;" parent="7MvwMutLjz3MVesOyT9L-10" vertex="1">
                    <mxGeometry x="22.5" width="115" height="30" as="geometry"/>
                </mxCell>
                <mxCell id="7MvwMutLjz3MVesOyT9L-14" value="" style="group" parent="1" vertex="1" connectable="0">
                    <mxGeometry x="125" y="1070" width="190" height="210" as="geometry"/>
                </mxCell>
                <mxCell id="7MvwMutLjz3MVesOyT9L-15" value="" style="rounded=1;whiteSpace=wrap;html=1;" parent="7MvwMutLjz3MVesOyT9L-14" vertex="1">
                    <mxGeometry width="190" height="210" as="geometry"/>
                </mxCell>
                <mxCell id="7MvwMutLjz3MVesOyT9L-17" value="Clues, Considerations, Next Steps" style="rounded=1;whiteSpace=wrap;html=1;" parent="7MvwMutLjz3MVesOyT9L-14" vertex="1">
                    <mxGeometry x="15" y="90" width="160" height="103.16" as="geometry"/>
                </mxCell>
                <mxCell id="7MvwMutLjz3MVesOyT9L-18" value="Assistant Output" style="text;strokeColor=none;align=center;fillColor=none;html=1;verticalAlign=middle;whiteSpace=wrap;rounded=0;fontStyle=4" parent="7MvwMutLjz3MVesOyT9L-14" vertex="1">
                    <mxGeometry x="38" y="19.998421052631578" width="115" height="22.105263157894736" as="geometry"/>
                </mxCell>
                <mxCell id="7MvwMutLjz3MVesOyT9L-22" value="&lt;b&gt;STATE FLOW&lt;/b&gt;" style="text;strokeColor=none;align=center;fillColor=none;html=1;verticalAlign=middle;whiteSpace=wrap;rounded=0;" parent="1" vertex="1">
                    <mxGeometry x="515" y="120" width="140" height="30" as="geometry"/>
                </mxCell>
            </root>
        </mxGraphModel>
    </diagram>
    <diagram id="Qm7H_QmpktETpS35U9g8" name="GenAI Magic">
        <mxGraphModel dx="1626" dy="1139" grid="1" gridSize="10" guides="1" tooltips="1" connect="1" arrows="1" fold="1" page="1" pageScale="1" pageWidth="850" pageHeight="1100" math="0" shadow="0">
            <root>
                <mxCell id="0"/>
                <mxCell id="1" parent="0"/>
                <mxCell id="JS59YeGciHnJGM7WiMGW-1" value="" style="group" vertex="1" connectable="0" parent="1">
                    <mxGeometry x="123" y="60" width="605" height="425" as="geometry"/>
                </mxCell>
                <mxCell id="JS59YeGciHnJGM7WiMGW-2" value="" style="rounded=1;whiteSpace=wrap;html=1;fillColor=#d5e8d4;strokeColor=#82b366;" vertex="1" parent="JS59YeGciHnJGM7WiMGW-1">
                    <mxGeometry x="235" y="15" width="230" height="410" as="geometry"/>
                </mxCell>
                <mxCell id="JS59YeGciHnJGM7WiMGW-3" value="" style="rounded=1;whiteSpace=wrap;html=1;fillColor=#dae8fc;strokeColor=#6c8ebf;" vertex="1" parent="JS59YeGciHnJGM7WiMGW-1">
                    <mxGeometry x="110" y="176.25" width="350" height="177.5" as="geometry"/>
                </mxCell>
                <mxCell id="JS59YeGciHnJGM7WiMGW-4" value="Guard Rails&lt;br&gt;(Output)" style="rounded=1;whiteSpace=wrap;html=1;fillColor=#f8cecc;strokeColor=#b85450;" vertex="1" parent="JS59YeGciHnJGM7WiMGW-1">
                    <mxGeometry x="250" y="365" width="200" height="50" as="geometry"/>
                </mxCell>
                <mxCell id="JS59YeGciHnJGM7WiMGW-5" value="Guard Rails&lt;br&gt;(Input)" style="rounded=1;whiteSpace=wrap;html=1;fillColor=#f8cecc;strokeColor=#b85450;" vertex="1" parent="JS59YeGciHnJGM7WiMGW-1">
                    <mxGeometry x="250" y="25" width="200" height="40" as="geometry"/>
                </mxCell>
                <mxCell id="JS59YeGciHnJGM7WiMGW-6" style="edgeStyle=orthogonalEdgeStyle;rounded=0;orthogonalLoop=1;jettySize=auto;html=1;exitX=0.5;exitY=0;exitDx=0;exitDy=0;entryX=0.5;entryY=1;entryDx=0;entryDy=0;" edge="1" parent="JS59YeGciHnJGM7WiMGW-1" source="JS59YeGciHnJGM7WiMGW-8" target="JS59YeGciHnJGM7WiMGW-22">
                    <mxGeometry relative="1" as="geometry"/>
                </mxCell>
                <mxCell id="JS59YeGciHnJGM7WiMGW-7" style="edgeStyle=orthogonalEdgeStyle;rounded=0;orthogonalLoop=1;jettySize=auto;html=1;exitX=1;exitY=0.5;exitDx=0;exitDy=0;" edge="1" parent="JS59YeGciHnJGM7WiMGW-1" source="JS59YeGciHnJGM7WiMGW-8" target="JS59YeGciHnJGM7WiMGW-24">
                    <mxGeometry relative="1" as="geometry"/>
                </mxCell>
                <mxCell id="JS59YeGciHnJGM7WiMGW-8" value="Model (LLM)" style="rounded=1;whiteSpace=wrap;html=1;fillColor=#d5e8d4;strokeColor=#82b366;" vertex="1" parent="JS59YeGciHnJGM7WiMGW-1">
                    <mxGeometry x="350" y="250" width="75" height="60" as="geometry"/>
                </mxCell>
                <mxCell id="JS59YeGciHnJGM7WiMGW-9" value="RAG" style="rounded=1;whiteSpace=wrap;html=1;fillColor=#fff2cc;strokeColor=#d6b656;" vertex="1" parent="JS59YeGciHnJGM7WiMGW-1">
                    <mxGeometry x="250" y="75" width="200" height="40" as="geometry"/>
                </mxCell>
                <mxCell id="JS59YeGciHnJGM7WiMGW-10" value="Context Management/Prompt Management/Input Management" style="rounded=1;whiteSpace=wrap;html=1;fillColor=#f8cecc;strokeColor=#b85450;" vertex="1" parent="JS59YeGciHnJGM7WiMGW-1">
                    <mxGeometry x="250" y="125" width="200" height="40" as="geometry"/>
                </mxCell>
                <mxCell id="JS59YeGciHnJGM7WiMGW-11" value="" style="shape=curlyBracket;whiteSpace=wrap;html=1;rounded=1;labelPosition=left;verticalLabelPosition=middle;align=right;verticalAlign=middle;" vertex="1" parent="JS59YeGciHnJGM7WiMGW-1">
                    <mxGeometry x="80" y="177.5" width="20" height="175" as="geometry"/>
                </mxCell>
                <mxCell id="JS59YeGciHnJGM7WiMGW-12" value="Pipeline Orchestrator" style="text;strokeColor=none;align=center;fillColor=none;html=1;verticalAlign=middle;whiteSpace=wrap;rounded=0;" vertex="1" parent="JS59YeGciHnJGM7WiMGW-1">
                    <mxGeometry y="250" width="60" height="30" as="geometry"/>
                </mxCell>
                <mxCell id="JS59YeGciHnJGM7WiMGW-13" value="Agency" style="ellipse;whiteSpace=wrap;html=1;aspect=fixed;fillColor=#dae8fc;strokeColor=#6c8ebf;" vertex="1" parent="JS59YeGciHnJGM7WiMGW-1">
                    <mxGeometry x="530" y="155" width="60" height="60" as="geometry"/>
                </mxCell>
                <mxCell id="JS59YeGciHnJGM7WiMGW-14" value="" style="whiteSpace=wrap;html=1;shape=mxgraph.basic.oval_callout;fontStyle=1" vertex="1" parent="JS59YeGciHnJGM7WiMGW-1">
                    <mxGeometry y="15" width="100" height="70" as="geometry"/>
                </mxCell>
                <mxCell id="JS59YeGciHnJGM7WiMGW-15" style="edgeStyle=orthogonalEdgeStyle;rounded=0;orthogonalLoop=1;jettySize=auto;html=1;entryX=0.5;entryY=0;entryDx=0;entryDy=0;" edge="1" parent="JS59YeGciHnJGM7WiMGW-1" source="JS59YeGciHnJGM7WiMGW-16" target="JS59YeGciHnJGM7WiMGW-5">
                    <mxGeometry relative="1" as="geometry"/>
                </mxCell>
                <mxCell id="JS59YeGciHnJGM7WiMGW-16" value="Query/Prompt" style="text;strokeColor=none;align=center;fillColor=none;html=1;verticalAlign=middle;whiteSpace=wrap;rounded=0;" vertex="1" parent="JS59YeGciHnJGM7WiMGW-1">
                    <mxGeometry width="95" height="90" as="geometry"/>
                </mxCell>
                <mxCell id="JS59YeGciHnJGM7WiMGW-17" style="edgeStyle=orthogonalEdgeStyle;rounded=0;orthogonalLoop=1;jettySize=auto;html=1;exitX=0.5;exitY=0;exitDx=0;exitDy=0;entryX=0.5;entryY=0;entryDx=0;entryDy=0;" edge="1" parent="JS59YeGciHnJGM7WiMGW-1" source="JS59YeGciHnJGM7WiMGW-18" target="JS59YeGciHnJGM7WiMGW-20">
                    <mxGeometry relative="1" as="geometry"/>
                </mxCell>
                <mxCell id="JS59YeGciHnJGM7WiMGW-18" value="Model (LLM)" style="rounded=1;whiteSpace=wrap;html=1;fillColor=#d5e8d4;strokeColor=#82b366;" vertex="1" parent="JS59YeGciHnJGM7WiMGW-1">
                    <mxGeometry x="140" y="250" width="75" height="60" as="geometry"/>
                </mxCell>
                <mxCell id="JS59YeGciHnJGM7WiMGW-19" style="edgeStyle=orthogonalEdgeStyle;rounded=0;orthogonalLoop=1;jettySize=auto;html=1;exitX=0.5;exitY=1;exitDx=0;exitDy=0;entryX=0.5;entryY=1;entryDx=0;entryDy=0;" edge="1" parent="JS59YeGciHnJGM7WiMGW-1" source="JS59YeGciHnJGM7WiMGW-20" target="JS59YeGciHnJGM7WiMGW-8">
                    <mxGeometry relative="1" as="geometry"/>
                </mxCell>
                <mxCell id="JS59YeGciHnJGM7WiMGW-20" value="Model (LLM)" style="rounded=1;whiteSpace=wrap;html=1;fillColor=#d5e8d4;strokeColor=#82b366;" vertex="1" parent="JS59YeGciHnJGM7WiMGW-1">
                    <mxGeometry x="247.5" y="250" width="75" height="60" as="geometry"/>
                </mxCell>
                <mxCell id="JS59YeGciHnJGM7WiMGW-21" style="edgeStyle=orthogonalEdgeStyle;rounded=0;orthogonalLoop=1;jettySize=auto;html=1;exitX=0;exitY=0.5;exitDx=0;exitDy=0;entryX=0;entryY=0.5;entryDx=0;entryDy=0;" edge="1" parent="JS59YeGciHnJGM7WiMGW-1" source="JS59YeGciHnJGM7WiMGW-22" target="JS59YeGciHnJGM7WiMGW-8">
                    <mxGeometry relative="1" as="geometry">
                        <Array as="points">
                            <mxPoint x="330" y="203"/>
                            <mxPoint x="330" y="280"/>
                        </Array>
                    </mxGeometry>
                </mxCell>
                <mxCell id="JS59YeGciHnJGM7WiMGW-22" value="ReAct/Reflect" style="rounded=0;whiteSpace=wrap;html=1;fillColor=#fff2cc;strokeColor=#d6b656;" vertex="1" parent="JS59YeGciHnJGM7WiMGW-1">
                    <mxGeometry x="342.5" y="190" width="90" height="25" as="geometry"/>
                </mxCell>
                <mxCell id="JS59YeGciHnJGM7WiMGW-23" value="" style="edgeStyle=orthogonalEdgeStyle;rounded=0;orthogonalLoop=1;jettySize=auto;html=1;" edge="1" parent="JS59YeGciHnJGM7WiMGW-1" source="JS59YeGciHnJGM7WiMGW-24" target="JS59YeGciHnJGM7WiMGW-13">
                    <mxGeometry relative="1" as="geometry"/>
                </mxCell>
                <mxCell id="JS59YeGciHnJGM7WiMGW-24" value="Tool Use" style="rounded=1;whiteSpace=wrap;html=1;fillColor=#dae8fc;strokeColor=#6c8ebf;" vertex="1" parent="JS59YeGciHnJGM7WiMGW-1">
                    <mxGeometry x="515" y="245" width="90" height="35" as="geometry"/>
                </mxCell>
            </root>
        </mxGraphModel>
    </diagram>
</mxfile>